# xmcd
#
# Track frame offsets:
#	150
#	11570
#	27277
#	41691
#	52106
#	65546
#	77687
#	87980
#	99772
#	112993
#	126778
#	139662
#	153482
#	167788
#
# Disc length: 2648 seconds
#
# Revision: 1
# Processed by: cddbd v1.4PL0 Copyright (c) Steve Scherf et al.
# Submitted via: EasyCDDAExtractor 5.1.0
#
DISCID=af0a560e
DTITLE=crazy horse - tous nos tubes
DYEAR=1900
DGENRE=Blues
TTITLE0=l'amour la première fois
TTITLE1=un jour sans toi
TTITLE2=ne rentre pas ce soir
TTITLE3=une fleur rien qu'une rose
TTITLE4=c'est trop facile de me dire je t'aime
TTITLE5=t'as les yeux bleus d'un ange
TTITLE6=un grand amour dans un p'tit coeur
TTITLE7=tant qu'on s'aimera
TTITLE8=quand le soleil
TTITLE9=oui , souviens - toi
TTITLE10=quand l'amour
TTITLE11=prends ma main
TTITLE12=caline divine
TTITLE13=bonus track :medley ( 7 titres )
EXTD=
EXTT0=
EXTT1=
EXTT2=
EXTT3=
EXTT4=
EXTT5=
EXTT6=
EXTT7=
EXTT8=
EXTT9=
EXTT10=
EXTT11=
EXTT12=
EXTT13=
PLAYORDER=
